
<svg
 width="46px" height="29px" viewBox="0 0 256.000000 255.000000" id="logo"
>
<g transform="translate(-75.000000,255.000000) scale(0.100000,-0.100000)"
fill="#ffffff" stroke="#000000">
<path d="M0 1275 l0 -1275 1280 0 1280 0 0 1275 0 1275 -1280 0 -1280 0 0
-1275z m2537 238 c-4 -553 -10 -1009 -13 -1012 -3 -3 -5 1 -4 9 1 8 2 459 1
1003 l-1 987 -975 0 c-643 0 -975 3 -975 10 0 7 335 10 986 10 l987 0 -6
-1007z m-1257 743 c-34 -34 -36 -35 -97 -29 -61 6 -63 7 -63 34 l0 29 97 0 98
0 -35 -34z m127 -18 c30 -29 83 -155 83 -198 0 -9 -23 -38 -50 -65 l-50 -49
-38 37 c-20 21 -44 59 -53 85 -9 26 -20 46 -25 44 -5 -2 -33 -81 -62 -175 -30
-95 -56 -174 -58 -176 -3 -3 -13 4 -24 15 -20 19 -20 20 26 164 25 80 47 152
50 160 5 13 7 12 15 -2 6 -10 15 -18 21 -18 6 0 3 9 -7 20 -28 31 -7 102 48
158 49 50 72 50 124 0z m147 -372 c25 -77 44 -141 43 -142 -2 -2 -48 41 -102
96 l-99 100 49 50 c27 27 52 47 56 42 3 -4 27 -70 53 -146z m-24 -231 c-35
-36 -67 -61 -71 -57 -4 4 -28 72 -54 151 -42 125 -46 147 -35 165 12 19 11 20
-2 8 -14 -11 -17 -8 -27 19 -6 18 -11 35 -11 39 0 4 59 -53 132 -127 l132
-133 -64 -65z m-393 49 c-8 -16 -30 -42 -48 -59 -36 -33 -35 -37 -3 72 l19 63
23 -24 c22 -22 23 -25 9 -52z m528 -153 l47 -143 -53 -54 -53 -54 -38 37 c-30
29 -45 57 -70 135 l-32 98 69 70 c38 38 72 66 76 62 4 -4 28 -72 54 -151z
m-559 48 c-9 -29 -16 -58 -16 -64 0 -7 30 -32 68 -57 93 -63 166 -129 152
-138 -7 -4 -10 -24 -8 -45 2 -24 -2 -40 -9 -42 -9 -3 -13 7 -13 31 0 46 -28
50 -37 6 -8 -42 -21 -47 -19 -7 1 32 0 32 -46 33 -43 2 -48 0 -48 -20 0 -12
-7 -31 -15 -42 -17 -23 -18 -19 -6 24 8 26 7 34 -5 39 -7 3 -14 13 -14 23 0
21 -35 54 -49 45 -6 -3 -11 -13 -11 -22 0 -11 -6 -8 -20 10 -11 14 -20 33 -20
44 0 19 -38 46 -110 76 -79 34 -143 47 -230 47 l-85 0 38 38 37 37 101 -1 101
-2 49 -48 c33 -32 48 -55 45 -66 -2 -10 -1 -18 2 -18 9 0 92 83 138 138 20 23
39 41 41 38 2 -2 -3 -28 -11 -57z m-523 -24 c-36 -43 -67 -53 -93 -30 -11 10
-20 22 -20 26 0 6 99 35 133 38 5 1 -4 -15 -20 -34z m358 9 c30 -9 56 -18 58
-20 7 -6 -31 -44 -44 -44 -6 0 -29 18 -50 40 -44 45 -41 47 36 24z m1258 -28
l23 -24 -41 -7 c-73 -12 -76 -24 -71 -235 l2 -65 -26 24 c-31 29 -32 42 -6 66
11 10 20 23 20 28 0 6 -8 3 -18 -6 -10 -10 -20 -17 -23 -17 -2 0 -4 38 -5 84
0 53 -5 90 -13 100 -7 9 -38 18 -72 22 -54 6 -59 9 -59 30 l0 24 133 0 c128 0
134 -1 156 -24z m51 -1 c0 -14 -4 -25 -8 -25 -5 0 -19 11 -32 25 l-23 25 31 0
c27 0 32 -4 32 -25z m-1782 -8 l22 -24 -37 -11 c-47 -14 -118 -58 -173 -108
l-41 -37 -20 20 -21 20 51 44 c43 37 174 118 192 119 3 0 15 -11 27 -23z
m-274 -262 c-19 -38 -37 -88 -41 -110 -3 -22 -17 -53 -32 -70 -17 -19 -19 -24
-5 -12 21 17 21 17 28 -14 12 -59 8 -65 -21 -38 l-28 24 28 -31 c15 -17 41
-58 56 -90 15 -33 41 -74 56 -92 l28 -33 -21 -21 -20 -21 -45 62 c-61 83 -81
145 -81 256 -1 104 18 176 64 249 31 48 32 49 50 30 19 -19 18 -20 -16 -89z
m1576 -51 l49 -148 -102 102 -102 102 50 50 c27 27 50 48 52 46 2 -2 26 -70
53 -152z m-783 104 c-1 -16 3 -23 14 -22 14 1 15 -4 6 -32 -12 -39 -39 -67
-60 -62 -12 2 -11 13 6 71 19 65 39 91 34 45z m595 -64 c-9 -16 -12 -16 -16
-4 -3 8 -10 29 -16 45 l-11 30 27 -26 c21 -22 24 -30 16 -45z m188 -249 c-24
-25 -50 -45 -56 -45 -32 0 -73 63 -107 164 -32 96 -34 105 -19 120 15 15 25 8
122 -89 l105 -105 -45 -45z m-374 218 c-10 -10 -19 5 -10 18 6 11 8 11 12 0 2
-7 1 -15 -2 -18z m-32 -32 c11 -10 20 -10 29 -3 8 7 18 7 27 2 8 -5 17 -7 21
-5 3 3 15 -5 25 -16 18 -20 17 -21 -44 -81 -35 -33 -65 -59 -67 -57 -2 2 -31
40 -64 84 -44 57 -58 82 -50 90 8 7 13 6 16 -2 8 -22 42 -14 60 13 15 24 17
25 24 7 4 -10 14 -25 23 -32z m746 -141 c0 -133 -1 -137 -25 -160 l-25 -23 0
183 0 183 25 -23 c24 -23 25 -27 25 -160z m-970 -17 l0 -156 -25 23 c-24 23
-25 28 -25 150 0 70 3 130 7 133 3 4 15 7 25 7 17 0 18 -11 18 -157z m-177 89
l-17 -52 -22 21 c-19 18 -21 25 -12 49 7 20 17 30 36 32 15 2 28 3 29 3 1 -1
-5 -24 -14 -53z m626 -112 l80 -105 -32 -33 -31 -32 -105 105 -106 105 45 45
c52 53 38 60 149 -85z m-664 60 c19 -20 18 -22 -24 -63 -29 -27 -41 -35 -37
-22 4 11 12 39 19 63 13 48 17 50 42 22z m567 -127 c54 -54 98 -103 98 -109 0
-6 -10 -20 -23 -32 l-23 -22 -79 107 c-44 58 -84 112 -88 120 -8 13 -2 33 11
33 4 0 51 -44 104 -97z m361 -1 c-37 -2 -78 0 -92 3 -24 6 -23 7 20 51 l43 44
49 -47 48 -48 -68 -3z m-938 27 c-20 -56 -74 -155 -94 -174 -16 -14 -19 -13
-35 4 -16 17 -15 21 19 72 30 45 113 139 122 139 1 0 -4 -18 -12 -41z m1075 0
c0 -41 -36 -39 -78 4 l-31 32 54 -3 c53 -4 55 -5 55 -33z m-850 -139 c0 -15
-11 -36 -25 -50 l-25 -23 0 73 0 73 25 -23 c14 -14 25 -35 25 -50z m632 -55
c85 -111 86 -114 67 -131 -19 -17 -23 -15 -122 84 l-101 101 29 31 c16 16 31
30 34 29 3 0 45 -51 93 -114z m338 58 l0 -56 -25 23 c-14 13 -25 28 -25 34 0
9 39 56 47 56 2 0 3 -26 3 -57z m-395 -114 l98 -101 -41 -41 c-23 -23 -43 -39
-45 -37 -15 19 -155 208 -161 218 -8 13 28 62 44 62 4 0 51 -45 105 -101z
m-935 66 c10 -13 9 -19 -5 -35 -21 -23 -126 -76 -170 -86 l-30 -7 35 38 c19
20 51 45 71 55 19 10 41 26 48 34 17 20 35 20 51 1z m1307 -7 c22 -20 23 -28
23 -163 0 -137 -1 -142 -25 -165 l-24 -23 -3 187 c-2 102 -1 186 1 186 3 0 15
-10 28 -22z m-1791 1 c4 -6 34 -24 68 -39 33 -16 72 -40 86 -55 l25 -28 -42 6
c-46 5 -147 48 -175 74 -17 15 -17 17 -2 35 20 21 30 23 40 7z m844 -196 l-1
-208 -62 -62 c-54 -55 -66 -63 -99 -63 -33 0 -38 3 -38 24 0 22 5 24 60 28 33
2 66 10 72 16 7 7 14 44 16 83 4 68 5 69 23 53 11 -10 19 -12 19 -6 0 7 -9 17
-20 24 -18 12 -20 24 -20 142 0 119 2 132 22 153 12 13 23 23 25 23 2 0 3 -93
3 -207z m-555 108 c-45 -43 -77 -47 -116 -13 l-33 27 74 6 c41 3 82 6 90 7 8
1 2 -10 -15 -27z m1379 -166 c47 -60 83 -111 80 -114 -2 -3 -52 42 -109 99
-99 98 -104 105 -88 122 20 22 11 29 117 -107z m-34 -27 l99 -103 -52 -55 -52
-55 55 52 56 53 69 -71 70 -70 -107 3 c-127 4 -120 -1 -244 163 l-83 110 37
38 c20 20 40 37 45 37 4 0 52 -46 107 -102z m597 -45 c-3 -10 -5 -4 -5 12 0
17 2 24 5 18 2 -7 2 -21 0 -30z m-417 -55 l0 -63 -32 32 -32 33 29 30 c16 16
30 30 32 30 2 0 3 -28 3 -62z m-1052 -360 c642 -1 917 -4 757 -8 -327 -9
-1737 -12 -1758 -4 -15 5 -17 26 -15 183 l2 176 3 -173 3 -172 1008 -2z m163
262 c46 -4 54 -8 57 -27 3 -23 2 -23 -119 -23 l-123 0 48 49 49 50 17 -22 c13
-15 33 -23 71 -27z m1029 -25 c0 -21 -5 -25 -28 -25 -17 0 -38 10 -52 25 l-23
25 51 0 c49 0 52 -2 52 -25z m-132 -242 c-10 -2 -26 -2 -35 0 -10 3 -2 5 17 5
19 0 27 -2 18 -5z"/>
</g>
</svg>
