<?xml version="1.0" standalone="no"?>
<!DOCTYPE svg PUBLIC "-//W3C//DTD SVG 20010904//EN"
 "http://www.w3.org/TR/2001/REC-SVG-20010904/DTD/svg10.dtd">
<svg version="1.0" xmlns="http://www.w3.org/2000/svg"
 width="483.000000pt" height="482.000000pt" viewBox="0 0 483.000000 482.000000"
 preserveAspectRatio="xMidYMid meet">

<g transform="translate(0.000000,482.000000) scale(0.100000,-0.100000)"
fill="#000000" stroke="none">
<path d="M2411 4248 c-41 -43 -72 -80 -70 -83 3 -2 40 31 83 74 43 43 74 80
70 83 -5 2 -42 -31 -83 -74z"/>
<path d="M2287 3963 c-4 -6 11 -27 32 -47 21 -21 41 -34 44 -29 4 6 -11 27
-32 47 -21 21 -41 34 -44 29z"/>
<path d="M2724 3741 l-99 -100 -73 72 c-86 85 -86 60 0 -28 l58 -61 -30 -29
c-16 -16 -30 -33 -30 -39 0 -5 16 5 35 24 l35 34 195 -194 c107 -107 195 -199
195 -205 0 -5 -57 -67 -127 -137 -70 -70 -125 -129 -122 -132 2 -3 66 56 142
131 l137 137 -32 34 c-18 19 -108 111 -200 205 -93 94 -168 173 -168 176 0 3
44 49 97 103 53 54 94 100 91 103 -3 3 -50 -39 -104 -94z"/>
<path d="M2087 3343 c-4 -6 13 -29 37 -52 24 -24 46 -39 49 -34 4 6 -13 29
-37 52 -24 24 -46 39 -49 34z"/>
<path d="M2050 3065 c-41 -41 -72 -77 -69 -79 6 -6 149 134 149 146 0 13 -2
11 -80 -67z"/>
<path d="M1106 2941 c-37 -38 -64 -71 -59 -74 5 -3 43 28 83 68 41 41 68 75
59 75 -8 0 -45 -31 -83 -69z"/>
<path d="M1694 2901 l96 -96 -27 -27 c-15 -15 -24 -30 -21 -34 4 -3 43 32 87
77 85 88 104 126 23 46 l-48 -47 -87 88 c-49 49 -95 89 -103 89 -9 0 28 -44
80 -96z"/>
<path d="M4155 2900 c27 -27 54 -50 59 -50 6 0 -12 23 -39 50 -27 28 -54 50
-59 50 -6 0 12 -22 39 -50z"/>
<path d="M860 2934 c0 -13 78 -89 85 -83 2 3 -16 25 -40 49 -25 24 -45 40 -45
34z"/>
<path d="M3132 2507 l-102 -102 -70 70 c-38 38 -70 64 -70 58 0 -6 30 -40 66
-75 l66 -63 -35 -32 c-19 -17 -32 -34 -29 -37 3 -4 21 8 39 26 l33 32 200
-199 200 -200 -92 -92 c-51 -51 -88 -93 -83 -93 5 0 49 39 98 88 l88 87 95
-97 c53 -54 101 -98 107 -98 6 0 -17 28 -51 63 -34 35 -60 66 -57 70 3 4 2 5
-2 2 -3 -3 -116 104 -250 237 l-243 242 102 103 c56 56 100 105 97 107 -3 3
-51 -41 -107 -97z"/>
<path d="M400 2565 c19 -19 38 -35 44 -35 5 0 -5 16 -24 35 -19 19 -38 35 -44
35 -5 0 5 -16 24 -35z"/>
<path d="M1843 2565 c-3 -9 2 -22 12 -29 15 -11 16 -18 7 -46 -13 -37 -9 -50
18 -50 23 0 50 36 50 66 0 25 -43 74 -65 74 -9 0 -18 -7 -22 -15z"/>
<path d="M3922 2486 c-30 -30 -50 -56 -45 -59 12 -8 107 87 102 102 -2 6 -28
-14 -57 -43z"/>
<path d="M2462 2488 c-17 -17 -15 -78 3 -98 13 -14 12 -20 -5 -48 -11 -18 -24
-32 -29 -32 -6 0 -11 33 -13 73 -3 70 -4 72 -30 75 -28 3 -32 -2 -43 -73 -3
-22 -15 -51 -25 -65 -22 -29 -25 -17 -9 49 8 35 7 48 -6 67 -19 29 -55 31 -80
4 l-18 -20 -14 20 c-27 38 -48 25 -61 -39 -13 -62 -51 -126 -52 -86 0 11 6 43
14 72 15 57 6 78 -31 71 -16 -3 -18 -17 -21 -111 -3 -103 -2 -107 18 -107 12
0 31 5 42 11 14 8 23 8 31 0 22 -22 27 -9 27 76 l0 87 28 -27 c23 -22 31 -25
41 -14 11 10 13 8 8 -10 -4 -17 6 -35 36 -69 l41 -46 22 26 c26 29 34 32 34
13 0 -16 32 -47 48 -47 15 0 70 57 88 93 20 37 30 34 32 -10 3 -64 69 -108
102 -68 12 14 15 14 30 0 20 -18 60 -20 60 -2 0 6 -16 30 -36 51 l-36 39 -25
-29 -24 -29 5 50 c3 41 1 54 -17 72 -19 22 -22 22 -39 6 -17 -15 -18 -14 -18
23 0 45 -14 64 -45 64 -12 0 -26 -5 -33 -12z"/>
<path d="M3880 2363 c0 -15 91 -106 98 -98 3 3 -17 29 -46 58 -29 28 -52 47
-52 40z"/>
<path d="M1848 2293 c-18 -18 -38 -26 -62 -27 -37 -1 -55 -23 -40 -47 6 -10
56 -9 94 2 13 4 46 86 38 95 -2 2 -16 -8 -30 -23z"/>
<path d="M2682 2057 c-61 -62 -112 -116 -112 -121 0 -5 11 1 25 14 l26 24 199
-199 200 -200 -52 -52 c-29 -29 -47 -53 -40 -53 6 0 32 21 57 48 l45 47 195
-195 c107 -107 195 -199 195 -205 0 -6 -34 -44 -75 -85 -41 -41 -72 -76 -69
-79 2 -3 40 31 84 74 l79 79 148 -150 c82 -82 170 -173 197 -202 l50 -53 -104
-104 c-58 -58 -100 -105 -95 -105 5 0 55 45 110 100 l101 100 138 -138 c75
-76 144 -139 152 -139 14 0 -56 76 -209 225 l-68 66 61 61 c33 33 60 65 60 70
0 5 -29 -20 -65 -55 l-65 -65 -200 200 -200 199 37 38 c45 46 32 51 -14 6
l-33 -32 -200 199 -200 200 60 60 c33 33 60 65 60 70 0 5 -29 -20 -65 -55
l-65 -65 -200 200 -200 200 82 82 c73 72 98 103 86 103 -2 0 -54 -51 -116
-113z"/>
<path d="M1700 2089 c0 -8 18 -33 40 -54 25 -24 40 -33 40 -24 0 8 -18 33 -40
54 -25 24 -40 33 -40 24z"/>
<path d="M212 2040 l-52 -51 47 -52 c54 -58 76 -77 82 -71 3 3 -21 30 -52 62
l-57 57 52 53 c67 67 50 68 -20 2z"/>
<path d="M1671 1866 c-46 -46 -82 -89 -80 -95 2 -6 42 27 88 73 46 46 82 89
80 95 -2 6 -42 -27 -88 -73z"/>
<path d="M2050 1732 c0 -4 23 -30 50 -57 61 -60 67 -45 7 19 -43 45 -57 54
-57 38z"/>
<path d="M3930 1666 c-67 -69 -70 -88 -4 -24 32 32 56 60 52 63 -3 3 -25 -15
-48 -39z"/>
<path d="M3877 1543 c-3 -5 18 -33 48 -62 30 -28 55 -46 55 -39 0 19 -96 112
-103 101z"/>
<path d="M1437 1533 c-8 -12 60 -79 70 -69 4 3 -9 23 -29 42 -19 20 -38 32
-41 27z"/>
<path d="M2096 1471 c-26 -27 -47 -54 -45 -60 3 -7 26 11 53 38 26 27 47 54
45 60 -3 7 -26 -11 -53 -38z"/>
<path d="M472 1480 c-18 -17 -32 -36 -32 -42 0 -7 17 4 37 24 45 45 40 61 -5
18z"/>
<path d="M1124 1313 c-35 -36 -61 -69 -59 -72 3 -3 38 27 78 67 39 40 66 72
58 72 -8 0 -42 -30 -77 -67z"/>
<path d="M835 1300 c33 -33 66 -60 74 -60 9 0 -11 26 -44 60 -33 33 -66 60
-74 60 -9 0 11 -26 44 -60z"/>
<path d="M4760 990 c0 -5 5 -10 11 -10 5 0 7 5 4 10 -3 6 -8 10 -11 10 -2 0
-4 -4 -4 -10z"/>
<path d="M2050 916 c0 -6 23 -34 50 -61 28 -27 50 -45 50 -39 0 5 -22 33 -50
61 -27 28 -50 46 -50 39z"/>
<path d="M2027 582 c-65 -65 -112 -119 -103 -119 19 0 230 211 225 226 -2 6
-57 -42 -122 -107z"/>
<path d="M2400 560 c0 -6 7 -10 15 -10 8 0 15 2 15 4 0 2 -7 6 -15 10 -8 3
-15 1 -15 -4z"/>
<path d="M4760 90 c0 -5 5 -10 11 -10 5 0 7 5 4 10 -3 6 -8 10 -11 10 -2 0 -4
-4 -4 -10z"/>
<path d="M4365 59 c49 -7 369 -11 350 -4 -5 2 -98 5 -205 7 -107 2 -172 1
-145 -3z"/>
<path d="M4730 61 c0 -11 26 -22 34 -14 3 3 3 10 0 14 -7 12 -34 11 -34 0z"/>
</g>
</svg>
